<?xml version="1.0" encoding="UTF-8" standalone="no"?>
<!-- Created with Inkscape (http://www.inkscape.org/) -->
<svg id="svg2" xmlns:rdf="http://www.w3.org/1999/02/22-rdf-syntax-ns#" xmlns="http://www.w3.org/2000/svg" height="226.04" width="500" version="1.0" xmlns:cc="http://creativecommons.org/ns#" xmlns:dc="http://purl.org/dc/elements/1.1/">
 <metadata id="metadata7">
  <rdf:RDF>
   <cc:Work rdf:about="">
    <dc:format>image/svg+xml</dc:format>
    <dc:type rdf:resource="http://purl.org/dc/dcmitype/StillImage"/>
    <dc:title/>
   </cc:Work>
  </rdf:RDF>
 </metadata>
 <g id="layer1" transform="translate(368.45 -404.17)">
  <g id="g2465" transform="matrix(.82533 0 0 .82533 -54.358 113.33)">
   <path id="path2417" d="m485.87 5c-0.71 0.0184-1.46 0.2221-2.41 0.6152-1.39 0.5754-10.53 9.3998-20.43 19.717-9.86 10.272-26.32 27.405-36.57 38.072-10.25 10.668-24.19 25.228-30.98 32.358l-12.33 12.958-8.59 0.04-8.59 0.04 1.57-1.8c0.87-0.99 5.93-6.61 11.26-12.488 9.3-10.27 10.07-10.904 19.4-16.02 13.54-7.43 20.26-12.661 34.1-26.553 12.99-13.038 23.57-26.374 27.38-34.501 3.73-7.9581 2.39-12.817-3.16-11.467-2.62 0.6364-6.26 4.262-48.01 47.695-25.63 26.665-26 27.009-31.01 28.609-2.8 0.891-6.13 1.792-7.42 2.002-2.07 0.339-2.28 0.18-1.81-1.373 1.6-5.353 1.47-7.703-0.48-9.072-4.29-3.006-12.93-0.743-23.02 6.031-2.95 1.981-11.86 10.149-19.81 18.151-10.1 10.176-15.64 15.126-18.43 16.476-4.11 1.98-6.43 1.53-4.97-0.96 0.55-0.93 66.3-72.037 88.91-96.139l4.06-4.332-6.93 0.039-6.93 0.037-27.23 30.56c-14.98 16.808-27.68 30.932-28.22 31.385-0.69 0.572-1.74 0.265-3.45-1.002-2.98-2.203-6.56-1.858-14.91 1.436-11.56 4.564-22.73 14.134-31.2 26.746-4.29 6.39-10.3 11.24-17.77 14.36-5.05 2.1-4.95-0.26 0.26-5.96 2.39-2.61 9.92-10.881 16.74-18.371s13.52-14.823 14.89-16.299l2.49-2.683h-6.66-6.66l-13.93 16.179c-16.87 19.604-20.11 24.194-20.11 28.474 0 2.29 0.48 3.46 1.83 4.41 3.58 2.51 7.27 1.37 17.15-5.28l6.19-4.17 0.24 2.27c0.4 3.84 1.84 6.55 3.98 7.53 3.07 1.4 4.58 1.17 9.9-1.53 5.41-2.75 6.1-2.92 6.1-1.52 0 1.78 2.71 3.98 4.87 3.96 2.96-0.02 8.37-2.6 14.62-6.97l5.27-3.68v3.16c0 4.63 2.54 7.51 6.64 7.51 8.66 0 26.15-12.75 36.35-26.504 3.84-5.19 4.35-5.572 8.41-6.318 2.37-0.437 5.05-1.104 5.96-1.482 1.54-0.643 1.57-0.575 0.41 1.039-0.68 0.95-10.3 11.185-21.39 22.735l-20.15 21.01-156.18 0.46-156.18 0.46-1.735 1.73-1.73 1.73h155.64 155.66l-3.58 4.06c-1.97 2.23-17.69 18.79-34.94 36.81-17.25 18.01-33.14 34.73-35.32 37.16l-3.94 4.41 6.01-0.45c3.3-0.25 6.99-0.69 8.19-0.99 2.26-0.55 4.23-2.64 50.49-53.53l24.91-27.41 7.63-0.03c4.2-0.02 7.64 0.21 7.64 0.51 0 0.29-3.25 3.91-7.22 8.04s-17.43 18.28-29.89 31.45c-12.47 13.16-26.75 28.11-31.73 33.22l-9.06 9.28h2.84c1.56-0.01 5.34-0.25 8.39-0.53l5.54-0.53 26.23-28.93c14.43-15.91 31.02-34.24 36.86-40.73l10.63-11.81h28.92c25.76 0 29.09-0.15 30.43-1.37 0.84-0.75 1.51-1.68 1.51-2.06 0-0.39-12.83-0.7-28.52-0.7h-28.52l9.27-10.32 9.28-10.31h28.97 28.98l4.05-4.11c2.22-2.26 3.87-4.28 3.66-4.49-0.2-0.2-2.97-0.05-6.14 0.34-11.2 1.39-42.16 3.42-48.21 3.16l-6.15-0.27 6.33-7.01c3.67-4.074 9.1-8.92 12.96-11.556 16.75-11.441 20.56-14.403 33.92-26.41 20.29-18.24 33.81-33.93 40.29-46.734 3.19-6.301 3.36-9.8838 0.53-11.172-0.76-0.3484-1.42-0.5164-2.13-0.498zm-0.96 4.3438c3.74 0-0.97 9.2262-11.16 21.871-7.78 9.655-33.45 34.271-44.55 42.711-5.52 4.199-10.29 7.635-10.59 7.635-0.31 0 2.54-3.397 6.33-7.549 3.8-4.152 18.53-20.402 32.74-36.11 14.63-16.175 26.44-28.558 27.23-28.558zm-28.64 1.2382c4.04 0 1.91 5.212-7.08 17.332-10.5 14.164-36.82 39.145-46.4 44.043-3.71 1.895-4.76 1.683-2.96-0.598 0.84-1.071 13.56-15.183 28.25-31.361 16.05-17.667 27.31-29.416 28.19-29.416zm-92.8 66.027c3.67 0 3.5 1.285-0.34 2.514-6.18 1.98-8.79 7.128-5.47 10.797 1.24 1.371 1.16 1.703-1.23 4.715-4.13 5.219-16.62 16.675-21.9 20.085-6.25 4.05-9.57 4.22-9.57 0.5 0-3.91 7.2-13.55 18.76-25.111 8.51-8.511 15.81-13.5 19.75-13.5zm-44.32 0.09c0.76 0.048 0.86 0.533 0.86 1.78 0 1.174-1.68 4.353-3.86 7.322-4.84 6.566-18.85 21.049-25.52 26.359-7.42 5.91-11.06 6.84-11.06 2.83 0-3.34 8.23-14.53 17.31-23.525 8.85-8.77 15.59-13.553 20.46-14.527 0.61-0.123 1.08-0.206 1.45-0.233 0.13-0.01 0.26-0.013 0.36-0.006zm41.69 37.051h9.01 9l-7.9 8.04c-4.35 4.43-8.7 9.07-9.67 10.32-1.73 2.22-1.97 2.27-10.41 2.27h-8.64l9.31-10.32 9.3-10.31z" transform="matrix(1.2116 0 0 1.2116 -380.57 352.39)"/>
   <path id="path2405" d="m211.57 16.527c-3.64 0.072-7.24 0.407-10.1 1.026-8.88 1.917-21.64 8.25-28.66 14.217-3.11 2.646-6.69 5.665-7.96 6.709l-2.31 1.896-6.07-4.09c-7.6-5.128-14.03-7.821-25.28-10.597-7.56-1.865-10.64-2.185-21.23-2.192-18.626-0.013-37.394 4.025-55.056 11.844-22.372 9.905-39.889 28.163-44.043 45.902-2.9635 12.659 1.825 23.578 12.795 29.178 17.126 8.73 48.302 3.09 70.705-12.811 20.729-14.709 23.819-35.725 6.259-42.56-7.114-2.767-18.192-2.591-26.97 0.428-8.796 3.024-14.371 6.319-20.671 12.212-8.541 7.99-11.414 16.01-7.836 21.877 3.286 5.39 13.24 5.375 19.406-0.027 6.06-5.309 4.24-12.93-3.088-12.93-6.215 0-11.121 4.979-10.242 10.397 0.759 4.681-2.768 3.391-3.985-1.457-1.443-5.751 7.648-16.796 18.422-22.383 8.924-4.627 13.668-5.873 22.438-5.895 6.577-0.015 8.482 0.294 11.824 1.922 7.602 3.705 8.112 10.234 1.552 19.84-6.235 9.138-22.987 19.682-38.136 24.007-7.698 2.2-23.176 3.08-29.816 1.7-5.951-1.24-11.575-4.825-14.495-9.236-4.672-7.061-3.28-19.009 3.389-29.057 14.977-22.563 47.786-36.201 84.248-35.021 10.28 0.332 13.64 0.777 19.77 2.615 8.98 2.692 18.91 7.739 23.95 12.18l3.74 3.297-1.53 1.953c-2.92 3.714-44.43 48.679-48.88 52.949-10.925 10.49-23.142 17.31-33.052 18.46-3.347 0.38-8.222 0.72-10.832 0.74-4.562 0.03-5.896 0.84-3.715 2.25 0.568 0.37 5.489 0.88 10.936 1.13 17.111 0.8 23.654 0.79 33.313-0.06 28.18-2.5 48.25-11.09 62.69-26.84 12.82-14 15.85-30.317 8.66-46.6l-2.01-4.539 7.27-7.041c8.24-7.972 16.79-13.951 24.35-17.024 7.87-3.196 16.81-5.228 23.29-5.292l5.85-0.059-3.3-1.266c-3.28-1.259-9.51-1.871-15.59-1.752zm-51.06 42.426l1.24 2.432c3.17 6.249 2.37 16.764-1.96 25.607-8.69 17.738-29.06 30.988-54.33 35.328-4.26 0.73-10.937 1.33-14.829 1.32l-7.076-0.01 9.363-3.77c18.102-7.29 22.962-11.16 45.312-36.071 9.42-10.5 18.29-20.383 19.71-21.963l2.57-2.873z" transform="matrix(1.2116 0 0 1.2116 -380.57 352.39)"/>
   <path id="path2401" d="m304.28 47.809c-1.58 0.004-3.49 0.361-5.71 1.144-7.96 2.81-15.21 8.918-42.11 35.512-25.51 25.215-30.86 30.105-32.93 30.105-2.55 0 0.28-4.67 12.54-20.744 7.4-9.696 13.73-18.095 14.08-18.662 0.48-0.789-0.79-1.031-5.42-1.031h-6.06l-9.47 10.847c-9.99 11.45-18.28 19.25-27.32 25.69-4.83 3.45-10.62 5.86-10.62 4.42 0-0.28 8.32-9.52 18.49-20.526l18.49-20.019-5.82-0.244c-3.21-0.135-6.18 0.112-6.62 0.549-0.51 0.508-1.73 0.227-3.38-0.784-5.7-3.474-14.19-1.411-25.7 6.241-18.83 12.526-32.36 36.173-24.11 42.143 2.74 1.98 8.82 1.15 13.66-1.86l3.99-2.48 0.75 2.57c1.69 5.73 8.92 3.14 24.65-8.83 13.32-10.14 12.77-9.81 10.5-6.35-4.63 7.04-6.13 13.16-3.84 15.7 4.71 5.2 12.65-0.6 44.14-32.218 23.69-23.784 34.35-31.666 35.73-26.406 0.99 3.807 7.24 3.481 11.53-0.601 7.97-7.561 7.4-14.186 0.56-14.166zm-95.93 29.152c0.74-0.001 1.38 0.156 1.9 0.477 1.06 0.66 1.01 1.151-0.39 3.757-2.14 3.975-25.61 28.175-31.94 32.935-6.25 4.7-8.94 4.97-8.94 0.88 0-2.72 4.17-8.7 12.44-17.793 11.42-12.576 21.75-20.252 26.93-20.256z" transform="matrix(1.2116 0 0 1.2116 -380.57 352.39)"/>
  </g>
 </g>
</svg>
